<svg xmlns="http://www.w3.org/2000/svg" width="192.808" height="225.317" viewBox="0 0 192.808 225.317">
  <g id="Group_18" data-name="Group 18" transform="translate(-576.498 -653.11)">
    <path id="Path_93" data-name="Path 93" d="M626.675,741.384V718.77l19.788,11.307v21.637Z" transform="translate(27.146 35.692)" fill="#b166ff" stroke="#000" stroke-linecap="round" stroke-linejoin="round" stroke-width="2"/>
    <path id="Path_94" data-name="Path 94" d="M646.463,711.87l-19.788,10.708,19.788,11.307,18.261-11.007Z" transform="translate(27.146 31.883)" fill="#b166ff" stroke="#000" stroke-linecap="round" stroke-linejoin="round" stroke-width="2"/>
    <path id="Path_95" data-name="Path 95" d="M654,696V720.63l-19.787,10.708v22.614l-21.2,11.307V718.6Z" transform="translate(19.605 23.124)" fill="#f79ce4" stroke="#000" stroke-linecap="round" stroke-linejoin="round" stroke-width="2"/>
    <path id="Path_96" data-name="Path 96" d="M602.087,704.2l16.961,9.876v46.659l40.989,23.726v19.627l-57.949-33.458Z" transform="translate(13.573 27.649)" fill="#ff45ce" stroke="#000" stroke-linecap="round" stroke-linejoin="round" stroke-width="2"/>
    <path id="Path_97" data-name="Path 97" d="M590.247,801.541V712.5l76.323-43.815V691.72L608.622,723.8v66.43Z" transform="translate(7.038 8.043)" fill="#8ff9ba" stroke="#000" stroke-linecap="round" stroke-linejoin="round" stroke-width="2"/>
    <path id="Path_98" data-name="Path 98" d="M602.087,715.61l16.961,9.876,40.989-22.6L699.611,725.5l16.961-8.48-56.536-33.5Z" transform="translate(13.573 16.237)" fill="#ff45ce" stroke="#000" stroke-linecap="round" stroke-linejoin="round" stroke-width="2"/>
    <path id="Path_99" data-name="Path 99" d="M577.5,689.628l19.787,11.307v89.044l76.323,44.146v23.7L577.5,802.7Z" transform="translate(0 19.605)" fill="#2bff88" stroke="#000" stroke-linecap="round" stroke-linejoin="round" stroke-width="2"/>
    <path id="Path_100" data-name="Path 100" d="M590.247,758.308,608.622,747l57.949,33.458L723.107,747l19.59,11.307-76.126,44.146Z" transform="translate(7.038 51.276)" fill="#8ff9ba" stroke="#000" stroke-linecap="round" stroke-linejoin="round" stroke-width="2"/>
    <path id="Path_101" data-name="Path 101" d="M577.5,709.233l19.787,11.307,76.323-43.815,76.323,45.229,18.374-11.307-94.7-56.536Z" transform="translate(0 0)" fill="#2bff88" stroke="#000" stroke-linecap="round" stroke-linejoin="round" stroke-width="2"/>
    <path id="Path_102" data-name="Path 102" d="M679,713.59v46.642l-39.575,23.726v19.627l56.536-33.458V705.109Z" transform="translate(34.184 28.151)" fill="#ff45ce" stroke="#000" stroke-linecap="round" stroke-linejoin="round" stroke-width="2"/>
    <path id="Path_103" data-name="Path 103" d="M639.425,691.72V668.682l76.323,45.229v87.631l-19.788-11.307V725.217Z" transform="translate(34.184 8.043)" fill="#8ff9ba" stroke="#000" stroke-linecap="round" stroke-linejoin="round" stroke-width="2"/>
    <path id="Path_104" data-name="Path 104" d="M715.748,701.845l18.374-11.307V800.783l-94.7,56.536v-23.7l76.323-44.147Z" transform="translate(34.184 20.108)" fill="#2bff88" stroke="#000" stroke-linecap="round" stroke-linejoin="round" stroke-width="2"/>
    <path id="Path_105" data-name="Path 105" d="M613.015,744.946l21.2-11.307L654,743.969,672.265,732.8l21.314,12.144L654,768.671Z" transform="translate(19.605 43.437)" fill="#f79ce4" stroke="#000" stroke-linecap="round" stroke-linejoin="round" stroke-width="2"/>
    <path id="Path_106" data-name="Path 106" d="M639.425,729.97v21.637l18.261-11.167V718.963Z" transform="translate(34.184 35.798)" fill="#b166ff" stroke="#000" stroke-linecap="round" stroke-linejoin="round" stroke-width="2"/>
    <path id="Path_107" data-name="Path 107" d="M639.425,720.63V696L679,718.617v46.642l-21.314-12.144V731.637Z" transform="translate(34.184 23.124)" fill="#f79ce4" stroke="#000" stroke-linecap="round" stroke-linejoin="round" stroke-width="2"/>
  </g>
</svg>
