<svg xmlns="http://www.w3.org/2000/svg" width="192.808" height="221.953" viewBox="0 0 192.808 221.953">
  <g id="Group_17" data-name="Group 17" transform="translate(-333.647 -653.11)">
    <path id="Path_84" data-name="Path 84" d="M376.255,751.439V713.748l32.979,18.845v36.062Z" transform="translate(21.995 31.526)" fill="#b166ff" stroke="#000" stroke-linecap="round" stroke-linejoin="round" stroke-width="2"/>
    <path id="Path_85" data-name="Path 85" d="M409.234,702.074,376.255,719.92l32.979,18.845,30.435-18.346Z" transform="translate(21.995 25.355)" fill="#b166ff" stroke="#000" stroke-linecap="round" stroke-linejoin="round" stroke-width="2"/>
    <path id="Path_86" data-name="Path 86" d="M421.453,675.222v41.046l-32.979,17.846V771.8L353.139,790.65V712.884Z" transform="translate(9.776 11.16)" fill="#f79ce4" stroke="#000" stroke-linecap="round" stroke-linejoin="round" stroke-width="2"/>
    <path id="Path_87" data-name="Path 87" d="M334.647,689.092l28.268,16.461v77.766l68.314,39.543v32.711l-96.582-55.764Z" transform="translate(0 18.492)" fill="#ff45ce" stroke="#000" stroke-linecap="round" stroke-linejoin="round" stroke-width="2"/>
    <path id="Path_88" data-name="Path 88" d="M334.647,707.584l28.268,16.461,68.314-37.662,65.958,37.69,28.268-14.134L431.229,654.11Z" transform="translate(0 0)" fill="#ff45ce" stroke="#000" stroke-linecap="round" stroke-linejoin="round" stroke-width="2"/>
    <path id="Path_89" data-name="Path 89" d="M463.788,704.766V782.5l-65.958,39.542v32.711l94.226-55.764V690.633Z" transform="translate(33.4 19.307)" fill="#ff45ce" stroke="#000" stroke-linecap="round" stroke-linejoin="round" stroke-width="2"/>
    <path id="Path_90" data-name="Path 90" d="M353.139,757.732l35.335-18.845L421.453,756.1l30.435-18.611,35.523,20.24-65.958,39.542Z" transform="translate(9.776 44.078)" fill="#f79ce4" stroke="#000" stroke-linecap="round" stroke-linejoin="round" stroke-width="2"/>
    <path id="Path_91" data-name="Path 91" d="M397.829,732.42v36.062l30.435-18.611v-35.8Z" transform="translate(33.4 31.699)" fill="#b166ff" stroke="#000" stroke-linecap="round" stroke-linejoin="round" stroke-width="2"/>
    <path id="Path_92" data-name="Path 92" d="M397.829,716.268V675.222l65.958,37.691V790.65L428.265,770.41v-35.8Z" transform="translate(33.4 11.16)" fill="#f79ce4" stroke="#000" stroke-linecap="round" stroke-linejoin="round" stroke-width="2"/>
  </g>
</svg>
