<svg xmlns="http://www.w3.org/2000/svg" width="192.808" height="225.317" viewBox="0 0 192.808 225.317">
  <g id="Group_19" data-name="Group 19" transform="translate(-824.738 -653.11)">
    <path id="Path_108" data-name="Path 108" d="M874.915,741.384V718.77L894.7,730.077v21.637Z" transform="translate(27.146 35.692)" fill="#fff" stroke="#000" stroke-linecap="round" stroke-linejoin="round" stroke-width="2"/>
    <path id="Path_109" data-name="Path 109" d="M894.7,711.87l-19.788,10.708L894.7,733.885l18.261-11.007Z" transform="translate(27.146 31.884)" fill="#fff" stroke="#000" stroke-linecap="round" stroke-linejoin="round" stroke-width="2"/>
    <path id="Path_110" data-name="Path 110" d="M902.243,696V720.63l-19.788,10.708v22.614l-21.2,11.307V718.6Z" transform="translate(19.605 23.124)" fill="#fff" stroke="#000" stroke-linecap="round" stroke-linejoin="round" stroke-width="2"/>
    <path id="Path_111" data-name="Path 111" d="M850.326,704.2l16.961,9.876v46.659l40.989,23.726v19.627l-57.949-33.458Z" transform="translate(13.573 27.649)" fill="#fff" stroke="#000" stroke-linecap="round" stroke-linejoin="round" stroke-width="2"/>
    <path id="Path_112" data-name="Path 112" d="M838.487,801.541V712.5l76.323-43.815V691.72L856.861,723.8v66.43Z" transform="translate(7.038 8.043)" fill="#fff" stroke="#000" stroke-linecap="round" stroke-linejoin="round" stroke-width="2"/>
    <path id="Path_113" data-name="Path 113" d="M850.326,715.61l16.961,9.876,40.989-22.6L947.851,725.5l16.961-8.48-56.536-33.5Z" transform="translate(13.573 16.237)" fill="#fff" stroke="#000" stroke-linecap="round" stroke-linejoin="round" stroke-width="2"/>
    <path id="Path_114" data-name="Path 114" d="M825.738,689.627l19.788,11.307v89.044l76.323,44.146v23.7L825.738,802.7Z" transform="translate(0 19.605)" fill="#fff" stroke="#000" stroke-linecap="round" stroke-linejoin="round" stroke-width="2"/>
    <path id="Path_115" data-name="Path 115" d="M838.487,758.308,856.861,747l57.949,33.458L971.347,747l19.59,11.307-76.126,44.146Z" transform="translate(7.038 51.276)" fill="#fff" stroke="#000" stroke-linecap="round" stroke-linejoin="round" stroke-width="2"/>
    <path id="Path_116" data-name="Path 116" d="M825.738,709.233l19.788,11.307,76.323-43.815,76.323,45.229,18.374-11.307-94.7-56.536Z" transform="translate(0 0)" fill="#fff" stroke="#000" stroke-linecap="round" stroke-linejoin="round" stroke-width="2"/>
    <path id="Path_117" data-name="Path 117" d="M927.24,713.59v46.642l-39.575,23.726v19.627L944.2,770.125V705.109Z" transform="translate(34.184 28.151)" fill="#fff" stroke="#000" stroke-linecap="round" stroke-linejoin="round" stroke-width="2"/>
    <path id="Path_118" data-name="Path 118" d="M887.665,691.72V668.682l76.323,45.229v87.63L944.2,790.234V725.217Z" transform="translate(34.184 8.043)" fill="#fff" stroke="#000" stroke-linecap="round" stroke-linejoin="round" stroke-width="2"/>
    <path id="Path_119" data-name="Path 119" d="M963.988,701.845l18.374-11.307V800.783l-94.7,56.536v-23.7l76.323-44.147Z" transform="translate(34.184 20.108)" fill="#fff" stroke="#000" stroke-linecap="round" stroke-linejoin="round" stroke-width="2"/>
    <path id="Path_120" data-name="Path 120" d="M861.255,744.946l21.2-11.307,19.788,10.33L920.5,732.8l21.314,12.144-39.575,23.726Z" transform="translate(19.605 43.438)" fill="#fff" stroke="#000" stroke-linecap="round" stroke-linejoin="round" stroke-width="2"/>
    <path id="Path_121" data-name="Path 121" d="M887.665,729.97v21.637l18.261-11.167V718.963Z" transform="translate(34.184 35.798)" fill="#fff" stroke="#000" stroke-linecap="round" stroke-linejoin="round" stroke-width="2"/>
    <path id="Path_122" data-name="Path 122" d="M887.665,720.63V696l39.575,22.614v46.642l-21.314-12.144V731.637Z" transform="translate(34.184 23.124)" fill="#fff" stroke="#000" stroke-linecap="round" stroke-linejoin="round" stroke-width="2"/>
  </g>
</svg>
