<svg xmlns="http://www.w3.org/2000/svg" width="239.733" height="275.665" viewBox="0 0 239.733 275.665">
  <g id="Group_103" data-name="Group 103" transform="translate(-4583.614 -641.822)">
    <path id="Path_339" data-name="Path 339" d="M4821.98,848.07V711.238l-118.5-68.416-118.5,68.416V848.07l118.5,68.416Z" stroke="#b166ff" stroke-linecap="round" stroke-linejoin="round" stroke-width="2"/>
    <path id="Path_340" data-name="Path 340" d="M4848.562,891.9V781.344l-95.745-55.278-95.744,55.278V891.9l95.744,55.278Z" transform="translate(-49.336 -56.968)" stroke="#b166ff" stroke-linecap="round" stroke-linejoin="round" stroke-width="2"/>
    <path id="Path_341" data-name="Path 341" d="M4877.622,939.821V857.994l-70.865-40.913-70.864,40.913v81.827l70.864,40.913Z" transform="translate(-103.277 -119.254)" stroke="#b166ff" stroke-linecap="round" stroke-linejoin="round" stroke-width="2"/>
    <path id="Path_342" data-name="Path 342" d="M4899.068,975.187V914.561l-52.5-30.313-52.5,30.313v60.626l52.5,30.313Z" transform="translate(-143.085 -165.22)" stroke="#b166ff" stroke-linecap="round" stroke-linejoin="round" stroke-width="2"/>
    <path id="Path_343" data-name="Path 343" d="M4930,1026.189v-30.05l-26.023-15.025-26.023,15.025v30.05l26.023,15.025Z" transform="translate(-200.494 -231.51)" stroke="#b166ff" stroke-linecap="round" stroke-linejoin="round" stroke-width="2"/>
    <line id="Line_21" data-name="Line 21" x2="26.024" y2="15.025" transform="translate(4677.457 764.629)" fill="none" stroke="#b166ff" stroke-linecap="round" stroke-linejoin="round" stroke-width="2"/>
    <line id="Line_22" data-name="Line 22" x1="26.024" y2="15.025" transform="translate(4703.481 764.629)" fill="none" stroke="#b166ff" stroke-linecap="round" stroke-linejoin="round" stroke-width="2"/>
    <line id="Line_23" data-name="Line 23" y1="30.05" transform="translate(4703.481 779.654)" fill="none" stroke="#b166ff" stroke-linecap="round" stroke-linejoin="round" stroke-width="2"/>
    <line id="Line_24" data-name="Line 24" y1="10.601" x2="18.361" transform="translate(4755.983 738.74)" fill="none" stroke="#b166ff" stroke-linecap="round" stroke-linejoin="round" stroke-width="2"/>
    <line id="Line_25" data-name="Line 25" x1="18.361" y1="10.601" transform="translate(4632.616 738.74)" fill="none" stroke="#b166ff" stroke-linecap="round" stroke-linejoin="round" stroke-width="2"/>
    <line id="Line_26" data-name="Line 26" y1="15.288" x2="26.48" transform="translate(4650.978 794.679)" fill="none" stroke="#b166ff" stroke-linecap="round" stroke-linejoin="round" stroke-width="2"/>
    <line id="Line_27" data-name="Line 27" x1="26.479" y1="15.288" transform="translate(4729.505 794.679)" fill="none" stroke="#b166ff" stroke-linecap="round" stroke-linejoin="round" stroke-width="2"/>
    <line id="Line_28" data-name="Line 28" y2="30.576" transform="translate(4703.481 719.028)" fill="none" stroke="#b166ff" stroke-linecap="round" stroke-linejoin="round" stroke-width="2"/>
    <line id="Line_29" data-name="Line 29" x2="22.756" y2="13.138" transform="translate(4584.98 711.238)" fill="none" stroke="#b166ff" stroke-linecap="round" stroke-linejoin="round" stroke-width="2"/>
    <line id="Line_30" data-name="Line 30" x1="22.756" y2="13.138" transform="translate(4799.225 711.238)" fill="none" stroke="#b166ff" stroke-linecap="round" stroke-linejoin="round" stroke-width="2"/>
    <line id="Line_31" data-name="Line 31" y1="26.276" transform="translate(4703.481 890.21)" fill="none" stroke="#b166ff" stroke-linecap="round" stroke-linejoin="round" stroke-width="2"/>
    <line id="Line_32" data-name="Line 32" y2="28.729" transform="translate(4703.481 669.098)" fill="none" stroke="#b166ff" stroke-linecap="round" stroke-linejoin="round" stroke-width="2"/>
    <line id="Line_33" data-name="Line 33" x2="24.88" y2="14.364" transform="translate(4774.345 820.567)" fill="none" stroke="#b166ff" stroke-linecap="round" stroke-linejoin="round" stroke-width="2"/>
    <line id="Line_34" data-name="Line 34" x1="24.88" y2="14.364" transform="translate(4607.736 820.567)" fill="none" stroke="#b166ff" stroke-linecap="round" stroke-linejoin="round" stroke-width="2"/>
  </g>
</svg>
